<svg width="24" height="24" viewBox="0 0 24 24" fill="none" xmlns="http://www.w3.org/2000/svg">
<path d="M12 16C13.6569 16 15 14.6569 15 13C15 11.3431 13.6569 10 12 10C10.3431 10 9 11.3431 9 13C9 14.6569 10.3431 16 12 16Z" stroke="white" stroke-width="1.5"/>
<path d="M10.0001 19.9998H14.0001C16.809 19.9998 18.2135 19.9998 19.2224 19.3257C19.6591 19.0338 20.0341 18.6588 20.326 18.2221C21.0001 17.2132 21.0001 15.8087 21.0001 12.9998C21.0001 10.1909 21 8.78662 20.3258 7.77772C20.034 7.34096 19.659 6.96596 19.2222 6.67412C18.2133 6 16.8089 6 14 6H9.99997C7.19105 6 5.78658 6 4.77769 6.67412C4.34093 6.96596 3.96593 7.34096 3.67409 7.77772C3.00012 8.78639 3.00012 10.1902 3.00012 12.9979V12.9998C3.00012 15.8087 3.00012 17.2132 3.67424 18.2221C3.96607 18.6588 4.34108 19.0338 4.77784 19.3257C5.78673 19.9998 7.19119 19.9998 10.0001 19.9998Z" stroke="white" stroke-width="1.5"/>
<path d="M18 10H17.5" stroke="white" stroke-width="1.5" stroke-linecap="round"/>
<path d="M14.5 3.5H9.5" stroke="white" stroke-width="1.5" stroke-linecap="round"/>
</svg>
