<svg width="24" height="24" viewBox="0 0 24 24" fill="none" xmlns="http://www.w3.org/2000/svg">
<rect x="0.5" y="0.5" width="23" height="23" rx="11.5" fill="#34C759"/>
<rect x="0.5" y="0.5" width="23" height="23" rx="11.5" stroke="white"/>
<path d="M16.4732 8.80658C16.4113 8.74409 16.3376 8.6945 16.2563 8.66065C16.1751 8.6268 16.088 8.60938 15.9999 8.60938C15.9119 8.60938 15.8248 8.6268 15.7436 8.66065C15.6623 8.6945 15.5886 8.74409 15.5266 8.80658L10.5599 13.7799L8.47328 11.6866C8.40893 11.6244 8.33297 11.5755 8.24973 11.5427C8.1665 11.5099 8.07761 11.4938 7.98816 11.4954C7.89871 11.497 7.81043 11.5161 7.72838 11.5518C7.64633 11.5874 7.57211 11.6389 7.50995 11.7032C7.44779 11.7676 7.39891 11.8436 7.36611 11.9268C7.33331 12.01 7.31722 12.0989 7.31877 12.1884C7.32031 12.2778 7.33947 12.3661 7.37513 12.4481C7.41079 12.5302 7.46227 12.6044 7.52661 12.6666L10.0866 15.2266C10.1486 15.289 10.2223 15.3386 10.3036 15.3725C10.3848 15.4064 10.4719 15.4238 10.5599 15.4238C10.648 15.4238 10.7351 15.4064 10.8163 15.3725C10.8976 15.3386 10.9713 15.289 11.0333 15.2266L16.4732 9.78658C16.541 9.72415 16.595 9.64838 16.6319 9.56404C16.6688 9.47972 16.6879 9.38864 16.6879 9.29658C16.6879 9.20451 16.6688 9.11344 16.6319 9.0291C16.595 8.94477 16.541 8.869 16.4732 8.80658Z" fill="white"/>
</svg>
