<svg width="29" height="28" viewBox="0 0 29 28" fill="none" xmlns="http://www.w3.org/2000/svg">
<path d="M14.1667 9.33301V13.9997L17.0834 16.9163" stroke="#1B1B1B" stroke-width="2" stroke-linecap="round" stroke-linejoin="round"/>
<path d="M5.22743 8.01561L4.35244 8.02001C4.35486 8.49983 4.74322 8.88819 5.22303 8.8906L5.22743 8.01561ZM8.19284 8.90552C8.67609 8.90796 9.0698 8.51818 9.07223 8.03493C9.07466 7.55169 8.68488 7.15797 8.20164 7.15555L8.19284 8.90552ZM6.0875 5.04141C6.08507 4.55816 5.69136 4.16839 5.20811 4.17082C4.72487 4.17324 4.3351 4.56696 4.33752 5.0502L6.0875 5.04141ZM4.63109 12.5824C4.69672 12.1036 4.36179 11.6623 3.88301 11.5967C3.40425 11.5311 2.96292 11.8659 2.8973 12.3447L4.63109 12.5824ZM22.1726 5.99407C17.7157 1.53718 10.5136 1.49205 6.08616 5.91945L7.32359 7.15689C11.0559 3.42459 17.15 3.44628 20.9352 7.23151L22.1726 5.99407ZM6.16078 22.0059C10.6177 26.4628 17.8199 26.508 22.2473 22.0806L21.0098 20.8431C17.2775 24.5754 11.1834 24.5538 7.39821 20.7685L6.16078 22.0059ZM22.2473 22.0806C26.6747 17.6532 26.6295 10.451 22.1726 5.99407L20.9352 7.23151C24.7205 11.0167 24.7421 17.1108 21.0098 20.8431L22.2473 22.0806ZM6.08616 5.91945L4.60871 7.39689L5.84615 8.63433L7.32359 7.15689L6.08616 5.91945ZM5.22303 8.8906L8.19284 8.90552L8.20164 7.15555L5.23183 7.14062L5.22303 8.8906ZM6.10242 8.01121L6.0875 5.04141L4.33752 5.0502L4.35244 8.02001L6.10242 8.01121ZM2.8973 12.3447C2.42896 15.7616 3.51962 19.3648 6.16078 22.0059L7.39821 20.7685C5.15754 18.5278 4.23445 15.4761 4.63109 12.5824L2.8973 12.3447Z" fill="#1B1B1B"/>
</svg>
