<svg width="46" height="30" viewBox="0 0 46 30" fill="none" xmlns="http://www.w3.org/2000/svg">
<g clip-path="url(#clip0_72_2650)">
<path d="M0 0H46V30H0V0Z" fill="#095FAD"/>
<path d="M30.6667 0H46V30H30.6667V0ZM0 0H15.3333V30H0V0Z" fill="#BE1229"/>
<path d="M9.71108 14.5879H11.0382V21.0967H9.71108V14.5879ZM4.38477 14.5879H5.71186V21.0967H4.38477V14.5879Z" fill="#FFDA44"/>
<path d="M7.7115 19.1404C8.44443 19.1404 9.03859 18.5592 9.03859 17.8422C9.03859 17.1252 8.44443 16.5439 7.7115 16.5439C6.97856 16.5439 6.3844 17.1252 6.3844 17.8422C6.3844 18.5592 6.97856 19.1404 7.7115 19.1404Z" fill="#FFDA44"/>
<path d="M6.3844 19.7984H9.04756V21.0967H6.3844V19.7984ZM6.3844 14.5879H9.04756V15.8861H6.3844V14.5879Z" fill="#FFDA44"/>
<path d="M7.7115 13.9295C8.44443 13.9295 9.03859 13.3483 9.03859 12.6313C9.03859 11.9143 8.44443 11.333 7.7115 11.333C6.97856 11.333 6.3844 11.9143 6.3844 12.6313C6.3844 13.3483 6.97856 13.9295 7.7115 13.9295Z" fill="#FFDA44"/>
<path d="M6.84167 10.8684H8.59021L7.71146 9.5L6.84167 10.8684Z" fill="#FFDA44"/>
</g>
<defs>
<clipPath id="clip0_72_2650">
<rect width="46" height="30" rx="8" fill="white"/>
</clipPath>
</defs>
</svg>
