<svg width="80" height="80" viewBox="0 0 80 80" fill="none" xmlns="http://www.w3.org/2000/svg">
<rect x="0.5" y="0.5" width="79" height="79" rx="39.5" stroke="#EFEFEF"/>
<path fill-rule="evenodd" clip-rule="evenodd" d="M40 55.8667C48.7629 55.8667 55.8667 48.7629 55.8667 40C55.8667 31.2371 48.7629 24.1333 40 24.1333C31.2371 24.1333 24.1333 31.2371 24.1333 40C24.1333 48.7629 31.2371 55.8667 40 55.8667ZM40 68C55.464 68 68 55.464 68 40C68 24.536 55.464 12 40 12C24.536 12 12 24.536 12 40C12 55.464 24.536 68 40 68Z" fill="#6938EF"/>
<path d="M40.3204 40.6132C43.2363 37.6973 47.9639 37.6973 50.8798 40.6132L65.3991 55.1325C68.315 58.0484 68.315 62.776 65.3991 65.6919C62.4832 68.6079 57.7555 68.6079 54.8396 65.6919L40.3204 51.1727C37.4045 48.2568 37.4045 43.5291 40.3204 40.6132Z" fill="#F670C7"/>
<path d="M44.3972 55.2494L53.6185 64.4707C58.0415 62.004 61.7264 58.3729 64.2587 53.992L55.1129 44.8462C53.5065 49.86 49.4742 53.7881 44.3972 55.2494Z" fill="#6519BA"/>
<rect width="80" height="38" transform="translate(0 42)" fill="black" fill-opacity="0.3"/>
<path d="M40 64C41.6569 64 43 62.6569 43 61C43 59.3431 41.6569 58 40 58C38.3431 58 37 59.3431 37 61C37 62.6569 38.3431 64 40 64Z" stroke="white" stroke-width="1.5"/>
<path d="M38.0001 67.9998H42.0001C44.809 67.9998 46.2135 67.9998 47.2224 67.3257C47.6591 67.0338 48.0341 66.6588 48.326 66.2221C49.0001 65.2132 49.0001 63.8087 49.0001 60.9998C49.0001 58.1909 49 56.7866 48.3258 55.7777C48.034 55.341 47.659 54.966 47.2222 54.6741C46.2133 54 44.8089 54 42 54H38C35.1911 54 33.7866 54 32.7777 54.6741C32.3409 54.966 31.9659 55.341 31.6741 55.7777C31.0001 56.7864 31.0001 58.1902 31.0001 60.9979V60.9998C31.0001 63.8087 31.0001 65.2132 31.6742 66.2221C31.9661 66.6588 32.3411 67.0338 32.7778 67.3257C33.7867 67.9998 35.1912 67.9998 38.0001 67.9998Z" stroke="white" stroke-width="1.5"/>
<path d="M46 58H45.5" stroke="white" stroke-width="1.5" stroke-linecap="round"/>
<path d="M42.5 51.5H37.5" stroke="white" stroke-width="1.5" stroke-linecap="round"/>
</svg>
