<svg width="24" height="24" viewBox="0 0 24 24" fill="none" xmlns="http://www.w3.org/2000/svg">
<path d="M12 23.6162C11.6112 23.6195 11.2291 23.5151 10.896 23.3145L6.7337 20.8802C5.17549 20.0087 3.87494 18.7414 2.96348 17.2063C2.05203 15.6711 1.56197 13.9226 1.54285 12.1373V5.4859C1.54303 5.03768 1.68047 4.60026 1.93669 4.23249C2.1929 3.86472 2.5556 3.58423 2.97599 3.42876L11.2457 0.391041C11.7328 0.212752 12.2672 0.212752 12.7543 0.391041L21.024 3.42876C21.4444 3.58423 21.8071 3.86472 22.0633 4.23249C22.3195 4.60026 22.4569 5.03768 22.4571 5.4859V12.1373C22.438 13.9226 21.948 15.6711 21.0365 17.2063C20.125 18.7414 18.8245 20.0087 17.2663 20.8802L13.104 23.3145C12.7709 23.5151 12.3888 23.6195 12 23.6162ZM12 1.97504C11.9456 1.96514 11.8898 1.96514 11.8354 1.97504L3.5657 5.02647C3.47255 5.06097 3.39262 5.1239 3.33724 5.20636C3.28186 5.28882 3.25383 5.38662 3.25713 5.4859V12.1373C3.27702 13.6228 3.68889 15.0766 4.45109 16.3518C5.21329 17.6269 6.29877 18.6781 7.5977 19.399L11.76 21.8402C11.8336 21.8804 11.9161 21.9015 12 21.9015C12.0839 21.9015 12.1664 21.8804 12.24 21.8402L16.4023 19.399C17.7012 18.6781 18.7867 17.6269 19.5489 16.3518C20.3111 15.0766 20.723 13.6228 20.7428 12.1373V5.4859C20.7433 5.38894 20.7139 5.29419 20.6587 5.21447C20.6035 5.13475 20.5252 5.07391 20.4343 5.04018L12.1646 2.00247C12.1118 1.98336 12.0561 1.97406 12 1.97504Z" fill="#2DA64F"/>
<path d="M11.2457 15.3255C11.0434 15.3242 10.8475 15.254 10.6903 15.1266L7.7623 12.6581C7.58771 12.5117 7.47843 12.3019 7.4585 12.0749C7.43856 11.848 7.50961 11.6224 7.65601 11.4478C7.80241 11.2732 8.01217 11.1639 8.23914 11.144C8.46611 11.124 8.69171 11.1951 8.8663 11.3415L11.1634 13.2752L15.0857 8.95521C15.2385 8.78608 15.4522 8.68456 15.6798 8.67298C15.9074 8.66141 16.1303 8.74073 16.2994 8.8935C16.4686 9.04626 16.5701 9.25996 16.5817 9.48757C16.5932 9.71519 16.5139 9.93808 16.3612 10.1072L11.9177 15.0444C11.8327 15.137 11.7285 15.21 11.6125 15.2586C11.4965 15.3071 11.3714 15.3299 11.2457 15.3255Z" fill="#2DA64F"/>
</svg>
